<?xml version="1.0" encoding="utf-8"?>
<!-- Generator: Adobe Illustrator 28.5.0, SVG Export Plug-In . SVG Version: 9.03 Build 54727)  -->
<svg version="1.1" id="Layer_1" xmlns="http://www.w3.org/2000/svg" xmlns:xlink="http://www.w3.org/1999/xlink" x="0px" y="0px"
	 viewBox="0 0 1825.84 456.46" style="enable-background:new 0 0 1825.84 456.46;" xml:space="preserve">
<style type="text/css">
	.st0{fill:#FFE9E9;}
	.st1{fill:#E06E6E;}
	.st2{fill:#FFF7DE;}
	.st3{fill:#FFC536;}
	.st4{fill:#E3EEFF;}
	.st5{fill:#45A7DD;}
	.st6{fill:#EDE6FF;}
	.st7{fill:#956DE2;}
	.st8{fill:#14003A;}
</style>
<g>
	<g>
		<g>
			<path class="st6" d="M106.2,431.88c-45.01,0-81.62-36.62-81.62-81.62V106.2c0-45.01,36.62-81.62,81.62-81.62h244.05
				c45.01,0,81.62,36.62,81.62,81.62v244.05c0,45.01-36.62,81.62-81.62,81.62H106.2z"/>
		</g>
		<g>
			<path class="st7" d="M350.26,49.16c31.46,0,57.05,25.59,57.05,57.05v244.05c0,31.46-25.59,57.05-57.05,57.05H106.2
				c-31.46,0-57.05-25.59-57.05-57.05V106.2c0-31.46,25.59-57.05,57.05-57.05H350.26 M350.26,0H106.2C47.55,0,0,47.55,0,106.2
				v244.05c0,58.65,47.55,106.2,106.2,106.2h244.05c58.65,0,106.2-47.55,106.2-106.2V106.2C456.46,47.55,408.91,0,350.26,0L350.26,0
				z"/>
		</g>
	</g>
	<g>
		<path class="st8" d="M49.87,92.4H113l37.65,142.62l6.46,32.71h3.8l7.99-32.71l33.09-106.11h55.53l33.47,106.11l7.61,31.95h3.8
			l5.7-31.95L343.47,92.4h63.13l-71.88,272.3h-56.29l-38.79-119.42l-7.99-32.71h-3.8l-7.99,32.71l-38.79,119.42h-56.29L49.87,92.4z"
			/>
	</g>
</g>
<g>
	<g>
		<g>
			<path class="st2" d="M562.66,431.88c-45.01,0-81.62-36.62-81.62-81.62V106.2c0-45.01,36.62-81.62,81.62-81.62h244.05
				c45.01,0,81.62,36.62,81.62,81.62v244.05c0,45.01-36.62,81.62-81.62,81.62H562.66z"/>
		</g>
		<g>
			<path class="st3" d="M806.72,49.16c31.46,0,57.05,25.59,57.05,57.05v244.05c0,31.46-25.59,57.05-57.05,57.05H562.66
				c-31.46,0-57.05-25.59-57.05-57.05V106.2c0-31.46,25.59-57.05,57.05-57.05H806.72 M806.72,0H562.66
				c-58.65,0-106.2,47.55-106.2,106.2v244.05c0,58.65,47.55,106.2,106.2,106.2h244.05c58.65,0,106.2-47.55,106.2-106.2V106.2
				C912.92,47.55,865.37,0,806.72,0L806.72,0z"/>
		</g>
	</g>
	<g>
		<path class="st8" d="M666.68,364.71V170.75L622.94,189l-20.92-48.68l76.44-35.75h45.26v260.13H666.68z"/>
	</g>
</g>
<g>
	<g>
		<g>
			<path class="st4" d="M1019.12,431.88c-45.01,0-81.62-36.62-81.62-81.62V106.2c0-45.01,36.62-81.62,81.62-81.62h244.05
				c45.01,0,81.62,36.62,81.62,81.62v244.05c0,45.01-36.62,81.62-81.62,81.62H1019.12z"/>
		</g>
		<g>
			<path class="st5" d="M1263.18,49.16c31.46,0,57.05,25.59,57.05,57.05v244.05c0,31.46-25.59,57.05-57.05,57.05h-244.05
				c-31.46,0-57.05-25.59-57.05-57.05V106.2c0-31.46,25.59-57.05,57.05-57.05H1263.18 M1263.18,0h-244.05
				c-58.65,0-106.2,47.55-106.2,106.2v244.05c0,58.65,47.55,106.2,106.2,106.2h244.05c58.65,0,106.2-47.55,106.2-106.2V106.2
				C1369.38,47.55,1321.83,0,1263.18,0L1263.18,0z"/>
		</g>
	</g>
	<g>
		<path class="st8" d="M1036.95,94.99h59.33v104.97h3.8l89.75-104.97h70.36v3.8l-96.98,110.67l108.77,154.03v3.8h-72.26
			l-77.58-110.67l-25.86,30.04v80.62h-59.33V94.99z"/>
	</g>
</g>
<g>
	<g>
		<g>
			<path class="st0" d="M1475.58,431.88c-45.01,0-81.62-36.62-81.62-81.62V106.2c0-45.01,36.62-81.62,81.62-81.62h244.05
				c45.01,0,81.62,36.62,81.62,81.62v244.05c0,45.01-36.62,81.62-81.62,81.62H1475.58z"/>
		</g>
		<g>
			<path class="st1" d="M1719.64,49.16c31.46,0,57.05,25.59,57.05,57.05v244.05c0,31.46-25.59,57.05-57.05,57.05h-244.05
				c-31.46,0-57.05-25.59-57.05-57.05V106.2c0-31.46,25.59-57.05,57.05-57.05H1719.64 M1719.64,0h-244.05
				c-58.65,0-106.2,47.55-106.2,106.2v244.05c0,58.65,47.55,106.2,106.2,106.2h244.05c58.65,0,106.2-47.55,106.2-106.2V106.2
				C1825.84,47.55,1778.29,0,1719.64,0L1719.64,0z"/>
		</g>
	</g>
	<g>
		<path class="st8" d="M1509.76,367.29V94.99h97.36c13.94,0,26.81,2.16,38.6,6.47c11.79,4.31,21.99,10.33,30.61,18.06
			c8.62,7.74,15.34,17.05,20.16,27.95c4.81,10.9,7.23,22.95,7.23,36.13c0,13.19-2.41,25.23-7.23,36.13
			c-4.82,10.9-11.54,20.22-20.16,27.95c-8.62,7.74-18.83,13.76-30.61,18.06c-11.79,4.31-24.66,6.46-38.6,6.46h-38.03v95.08H1509.76z
			 M1609.02,215.93c12.42,0,21.68-3.04,27.76-9.13s9.13-13.82,9.13-23.2c0-9.38-3.04-17.11-9.13-23.2
			c-6.08-6.08-15.34-9.13-27.76-9.13h-39.93v64.65H1609.02z"/>
	</g>
</g>
</svg>
